# xmcd
#
# Track frame offsets:
#	182
#	27180
#	48542
#	76522
#	89882
#	113852
#	152347
#	182632
#
# Disc length: 3355
#
# Revision: 3
# Processed by: cddbd v1.5.1PL0 Copyright (c) Steve Scherf et al.
# Submitted via: audiograbber 1.82.02
# Normalized: r2:DSETVAR1
#
DISCID=570d1908
DTITLE=Various Artist - The Art Of Jazz - Blues
DYEAR=1900
DGENRE=Jazz
TTITLE0=Louis Armstrong - Basin Street Blues
TTITLE1=Stephane Grappelli and Barney Kessel - Blues For George
TTITLE2=Ruby Braff - Nobody Knows You When Your Down And Out - Buddy Bolden's Blues
TTITLE3=Miles Davis - Don't Sing Me The Blues
TTITLE4=Oscar Pettiford - Blues In The Closet
TTITLE5=Freddie Hubbard - Blues For Alvinia
TTITLE6=Thelonious Monk - Something In Blue
TTITLE7=Dexter Gordon - Sonnymoon For Two
EXTD=
EXTT0=
EXTT1=
EXTT2=
EXTT3=
EXTT4=
EXTT5=
EXTT6=
EXTT7=
PLAYORDER=
